<?xml version="1.0" encoding="UTF-8"?>
<svg version="1.1" xmlns="http://www.w3.org/2000/svg" width="459" height="513">
<path d="M0 0 C1.50338816 -0.00461921 3.0067718 -0.01097893 4.51014614 -0.01890898 C8.60597471 -0.03548556 12.70142672 -0.02740968 16.79725599 -0.0149641 C21.22815367 -0.00586769 25.65898918 -0.01990598 30.08987427 -0.03088379 C38.75601621 -0.04862483 47.4220192 -0.04484876 56.08816648 -0.03323323 C63.13438124 -0.02418175 70.1805572 -0.02298231 77.22677612 -0.02732849 C78.23149285 -0.02794142 79.23620957 -0.02855436 80.27137226 -0.02918586 C82.31274582 -0.03046483 84.35411937 -0.03176168 86.39549291 -0.03307623 C105.51556839 -0.04446909 124.63556702 -0.03138863 143.7556299 -0.00987476 C160.14417259 0.00799503 176.53260193 0.00489056 192.92114258 -0.0135498 C211.97507752 -0.03497938 231.0289452 -0.04337058 250.08289051 -0.03110075 C252.1165498 -0.02982662 254.1502091 -0.02856913 256.18386841 -0.02732849 C257.18434045 -0.02671139 258.18481249 -0.02609429 259.21560186 -0.02545848 C266.2493724 -0.02201185 273.28310011 -0.02781911 280.31686401 -0.0372467 C288.89439032 -0.04849128 297.47177029 -0.04537507 306.04927993 -0.02412373 C310.42158796 -0.01364633 314.79365244 -0.00943466 319.1659584 -0.02272034 C323.17553931 -0.03471914 327.18465299 -0.02795977 331.19419205 -0.00681013 C332.63749298 -0.00237554 334.08083413 -0.00453881 335.52410877 -0.01431328 C352.67324068 -0.12146238 366.96694049 4.81233505 379.51782227 16.69543457 C394.75096195 32.78461525 396.33184575 49.68098258 396.27172852 70.73840332 C396.27697273 72.98273474 396.28325212 75.22706396 396.29051208 77.47138977 C396.30087154 82.15384363 396.29641631 86.83599269 396.28173828 91.51843262 C396.26451556 97.50022088 396.28811318 103.48105165 396.32322788 109.46273327 C396.34524358 114.08948555 396.34375092 118.7160099 396.33546257 123.34279823 C396.33464616 125.54787563 396.3414498 127.75297028 396.3562336 129.95799828 C396.37376633 133.04448959 396.35906607 136.12927378 396.33642578 139.21569824 C396.34811798 140.11309723 396.35981018 141.01049622 396.37185669 141.93508911 C396.24695576 150.35663251 392.79638172 158.58149835 386.70532227 164.50793457 C379.85231485 169.12184055 374.92930537 171.63564931 366.57177734 171.62145996 C365.84957504 171.62160599 365.12737274 171.62175201 364.38328552 171.62190247 C361.99711093 171.62120602 359.61101447 171.61342617 357.22485352 171.60559082 C355.57004336 171.60372569 353.91523266 171.60230223 352.26042175 171.6013031 C347.90551224 171.59748542 343.55063608 171.58766152 339.19573975 171.57659912 C334.75167289 171.5663689 330.30760063 171.56180203 325.86352539 171.5567627 C317.14410904 171.54603859 308.4247198 171.52897114 299.70532227 171.50793457 C299.67003029 176.56161922 300.05519144 180.35139613 303.52172852 184.20080566 C304.75046044 185.41487297 306.0005468 186.6075942 307.26782227 187.78137207 C307.93313965 188.43062653 308.59845703 189.07988098 309.28393555 189.74880981 C311.40620756 191.81339387 313.55383464 193.84885353 315.70532227 195.88293457 C318.50546658 198.56953352 321.29485604 201.26706398 324.08032227 203.96887207 C324.75264389 204.61878113 325.42496552 205.26869019 326.11766052 205.93829346 C331.44691492 211.13770683 336.20785729 216.56371473 340.70532227 222.50793457 C341.15504395 223.08849609 341.60476563 223.66905762 342.06811523 224.26721191 C362.67635088 251.37489974 370.86449573 283.40806767 370.85058594 317.04333496 C370.85562386 318.82897858 370.85562386 318.82897858 370.86076355 320.6506958 C370.8685704 323.88050694 370.87193732 327.11027923 370.87257934 330.34009862 C370.87329605 332.36986193 370.87544203 334.39961874 370.87807655 336.42938042 C370.88729776 343.54468073 370.89141574 350.65996246 370.890625 357.77526855 C370.89002596 364.35191039 370.90055203 370.92846976 370.91636866 377.50509077 C370.92955628 383.19645693 370.93480421 388.88779652 370.93416959 394.5791778 C370.93391775 397.95828279 370.93755003 401.33725671 370.94734764 404.71635628 C370.99485739 422.79704694 370.69863358 440.68066878 366.95532227 458.44543457 C366.78613281 459.26133057 366.61694336 460.07722656 366.44262695 460.91784668 C363.63020647 473.96712803 359.69568174 486.5917429 354.64282227 498.94543457 C354.32667969 499.73248779 354.01053711 500.51954102 353.68481445 501.33044434 C351.72241515 505.93906362 349.72896136 509.33366151 345.70532227 512.50793457 C342.61988136 513.35854414 339.83307229 513.1368843 336.70532227 512.50793457 C333.83502358 510.71399789 332.21400588 509.52530181 330.70532227 506.50793457 C329.95063513 499.71575035 332.38270616 494.42380217 334.89282227 488.19543457 C343.99069381 464.73737156 348.86114699 441.47604939 348.85058594 416.25378418 C348.85394455 415.08140198 348.85730316 413.90901978 348.86076355 412.70111084 C348.87020327 408.85415566 348.87221331 405.00724434 348.87329102 401.16027832 C348.87471717 399.82244918 348.87631369 398.4846202 348.87807655 397.14679146 C348.88730117 390.13639016 348.89141534 383.12600775 348.890625 376.11560059 C348.89002597 369.63268536 348.90055089 363.1498538 348.91636866 356.6669597 C348.92955088 351.05970501 348.93480442 345.45247729 348.93416959 339.84520727 C348.93391758 336.51474412 348.93755733 333.18441392 348.94734764 329.85395622 C349.06241287 286.66042016 340.01343307 251.08076077 308.97215271 219.74920654 C307.98080465 218.75958069 306.98877042 217.77064177 305.99609375 216.78234863 C305.486549 216.27398468 304.97700424 215.76562073 304.45201874 215.24185181 C303.20371728 213.99661361 301.95460184 212.75219148 300.70532227 211.50793457 C300.7047775 212.4142374 300.70423273 213.32054024 300.70367146 214.25430679 C300.68868282 236.34002338 300.64615174 258.42553858 300.5732317 280.51114273 C300.53862686 291.19173704 300.51323208 301.87220289 300.50976562 312.55285645 C300.50671947 321.86567899 300.48614141 331.17827248 300.44479769 340.49100661 C300.42352519 345.41886392 300.41083747 350.34639606 300.41916847 355.27429962 C300.42674508 359.92018725 300.41074007 364.56541799 300.37726212 369.21118546 C300.36907214 370.9089858 300.36922736 372.60685201 300.37872505 374.30464554 C300.43961358 386.39354509 299.17799381 397.78986961 290.43188477 406.98449707 C280.75342752 415.52431229 271.56608826 418.2686905 258.84985352 417.86340332 C253.59769044 417.53417744 249.28517608 416.08018124 244.70532227 413.50793457 C243.67407227 412.95105957 242.64282227 412.39418457 241.58032227 411.82043457 C226.83019739 399.95620369 223.25882487 381.48702771 217.78930664 364.17028809 C216.89992763 361.362888 215.99163445 358.56218529 215.08032227 355.76184082 C214.81558105 354.90659317 214.55083984 354.05134552 214.27807617 353.17018127 C212.62522261 348.14621196 210.9356044 344.93863188 206.70532227 341.50793457 C203.93697203 340.66379747 201.51993071 340.88246603 198.70532227 341.50793457 C195.26219513 343.63241727 193.98914679 344.65646098 192.70532227 348.50793457 C192.59857577 351.27355499 192.54806488 354.01433745 192.54418945 356.78039551 C192.53922455 357.62480698 192.53425964 358.46921844 192.52914429 359.33921814 C192.51451298 362.1402569 192.50771489 364.94123882 192.50219727 367.74230957 C192.49644145 369.69748943 192.49068377 371.65266928 192.48492432 373.60784912 C192.47440804 377.7169623 192.46857118 381.82605591 192.46508789 385.93518066 C192.45963751 391.16321066 192.43568691 396.39097566 192.40711594 401.61892319 C192.38834104 405.66508697 192.38327587 409.71118925 192.38175201 413.75739288 C192.37875237 415.68202393 192.37081648 417.6066546 192.35756683 419.53124237 C192.26442369 434.11611545 193.33480432 447.58709008 198.70532227 461.32043457 C198.99221924 462.0854126 199.27911621 462.85039062 199.57470703 463.6385498 C201.44681447 468.53865469 203.49361704 473.34820688 205.60766602 478.14855957 C206.1084668 479.29477783 206.60926758 480.44099609 207.12524414 481.62194824 C208.1154776 483.87211677 209.12257743 486.11495988 210.14868164 488.34899902 C212.97187306 494.74313275 214.96400036 500.46218264 213.70532227 507.50793457 C211.76782227 510.63293457 211.76782227 510.63293457 208.70532227 512.50793457 C205.53411066 513.20746654 202.84158138 513.3834092 199.70532227 512.50793457 C194.29372066 508.75311281 192.16898503 505.14286633 189.79516602 499.08605957 C189.46037735 498.26780701 189.12558868 497.44955444 188.78065491 496.60650635 C188.07620154 494.87491141 187.37993126 493.13996743 186.69140625 491.40197754 C185.65961887 488.80028782 184.60202474 486.21040153 183.53930664 483.62121582 C175.55575283 463.96960799 170.33262478 445.5133874 170.51000977 424.11340332 C170.51283966 422.80003494 170.51566956 421.48666656 170.51858521 420.13349915 C170.52611861 416.68944277 170.54567465 413.24556275 170.56799316 409.80157471 C170.5886773 406.26817203 170.5976345 402.73474007 170.60766602 399.20129395 C170.62893351 392.30343634 170.66294016 385.40569398 170.70532227 378.50793457 C170.01485306 378.51903763 169.32438385 378.53014069 168.61299133 378.5415802 C161.42685887 378.65219404 154.2409682 378.72761107 147.05419922 378.78259277 C144.37193773 378.80491451 141.69026806 378.83970251 139.00830078 378.88513184 C135.15322971 378.94577982 131.29906456 378.97414584 127.44360352 378.99621582 C125.6449157 379.03492546 125.6449157 379.03492546 123.80989075 379.07441711 C115.50027714 379.07721709 115.50027714 379.07721709 111.47167969 376.19226074 C109.23446192 372.79237003 108.70532227 370.57766262 108.70532227 366.50793457 C110.22048854 362.49274394 111.11084756 360.90425104 114.70532227 358.50793457 C117.19206238 358.26742554 117.19206238 358.26742554 120.18652344 358.28088379 C121.30745895 358.28103485 122.42839447 358.28118591 123.58329773 358.28134155 C124.79274551 358.29166412 126.0021933 358.30198669 127.24829102 358.31262207 C129.10639153 358.31686691 129.10639153 358.31686691 131.00202942 358.32119751 C134.29170313 358.33050271 137.5811809 358.34846666 140.87078857 358.37060547 C144.22902021 358.39108187 147.58728054 358.40020305 150.94555664 358.41027832 C157.53222199 358.43235186 164.1187561 358.46583935 170.70532227 358.50793457 C170.68574463 357.63765625 170.66616699 356.76737793 170.64599609 355.87072754 C170.62315552 354.14040283 170.62315552 354.14040283 170.59985352 352.37512207 C170.58027588 351.23671875 170.56069824 350.09831543 170.54052734 348.92541504 C170.91468984 341.16611635 174.19134056 333.07761306 179.70532227 327.50793457 C189.12301197 319.97378281 197.76741757 318.5286049 209.70532227 319.50793457 C217.01267077 321.14157205 222.81652366 324.88618917 227.70532227 330.50793457 C234.59878716 341.44052986 237.80097609 354.41328603 241.67626953 366.6192627 C242.56371161 369.40283203 243.46416287 372.18195725 244.36547852 374.96105957 C244.62708267 375.80082336 244.88868683 376.64058716 245.15821838 377.50579834 C247.23015206 383.8798084 249.87253187 389.91795478 254.89282227 394.50793457 C259.79312687 396.2502651 264.82782787 396.45638244 269.80297852 394.81652832 C274.17107343 392.60002156 276.04722526 390.02164308 277.70532227 385.50793457 C278.58583379 381.85994328 278.83021671 378.48220872 278.8300209 374.7340107 C278.83241185 373.57333521 278.8348028 372.41265972 278.83726621 371.21681225 C278.83483371 369.94592247 278.83240122 368.67503269 278.82989502 367.3656311 C278.83088154 365.99844731 278.8323189 364.63126378 278.8341682 363.26408088 C278.83722596 360.29196954 278.83712056 357.3198806 278.83461189 354.34776878 C278.83055002 349.51135544 278.83332255 344.67495959 278.83695984 339.83854675 C278.84105019 333.72550913 278.84328947 327.61247542 278.84337583 321.49943642 C278.84357871 309.47782714 278.85604742 297.45625813 278.87298584 285.43466187 C278.87559164 283.54109642 278.87819045 281.64753096 278.88078237 279.7539655 C278.88472087 276.88406405 278.8886674 274.01416261 278.89264359 271.14426122 C278.90759032 260.32342996 278.92121357 249.50259748 278.93334961 238.6817627 C278.93446317 237.69265014 278.93557673 236.70353759 278.93672404 235.68445192 C278.95427989 219.67407823 278.95716943 203.66372982 278.9554992 187.6533481 C278.95421823 171.20348358 278.97200595 154.75371287 279.00651717 138.30388439 C279.02712455 128.16556261 279.03253679 118.0274659 279.01818886 107.88913231 C279.00970153 100.93213412 279.01953498 93.97531021 279.04349837 87.01834877 C279.05674846 83.01033773 279.06209275 79.00274517 279.04537773 74.99473763 C279.03020341 71.31522765 279.03856186 67.63650159 279.06454727 63.95705901 C279.07242209 62.01686607 279.05604943 60.07661963 279.0384047 58.13649094 C279.18884634 44.21214956 283.57863713 32.77287852 291.70532227 21.50793457 C254.18391717 21.46213327 216.66251629 21.42690325 179.14108888 21.40580391 C174.70896806 21.40330257 170.2768473 21.40071392 165.84472656 21.39807129 C164.96239 21.39754667 164.08005345 21.39702205 163.17097942 21.39648153 C148.89384513 21.38778452 134.61672698 21.37201842 120.33960225 21.35362898 C105.68441932 21.33491035 91.02924483 21.32381369 76.37405044 21.31975758 C67.33473136 21.3170166 58.29545793 21.3083667 49.25615291 21.29210164 C43.05328996 21.28151053 36.85045054 21.27833876 30.64757922 21.28093182 C27.07158967 21.2822098 23.49567974 21.28028327 19.91970444 21.26952362 C16.03491611 21.25792073 12.15023035 21.26197575 8.26542664 21.26742554 C6.58590748 21.25868701 6.58590748 21.25868701 4.87245864 21.24977195 C-7.78667352 21.2976452 -19.64884817 23.11531217 -29.65405273 31.48059082 C-41.2345192 43.47464538 -41.44658844 57.78395902 -41.4283905 73.46949768 C-41.43026027 74.99758998 -41.43256164 76.5256818 -41.43525583 78.05377287 C-41.44135935 82.24077157 -41.44124195 86.42775027 -41.44006145 90.61475241 C-41.43985709 95.13490011 -41.4453795 99.65504144 -41.45011902 104.17518616 C-41.45841739 113.02511154 -41.46117346 121.87503026 -41.4617314 130.7249592 C-41.46220679 137.91721556 -41.4642627 145.10946972 -41.46743202 152.30172539 C-41.47623513 172.69388718 -41.48085175 193.08604371 -41.48010155 213.47820742 C-41.48004161 215.12644653 -41.48004161 215.12644653 -41.47998047 216.8079834 C-41.47993959 217.90815068 -41.47989871 219.00831796 -41.47985659 220.14182364 C-41.47944986 237.98420816 -41.48902707 255.82657161 -41.50311884 273.66895003 C-41.51747465 291.99012965 -41.52438951 310.31129899 -41.52352506 328.63248438 C-41.52319289 338.91828358 -41.52594884 349.20406067 -41.53670311 359.48985481 C-41.54579748 368.24403079 -41.547992 376.99817461 -41.54119369 385.75235326 C-41.53792356 390.2190113 -41.53788964 394.68560762 -41.54654694 399.15225983 C-41.55439069 403.24116262 -41.55300232 407.32995451 -41.5442628 411.41885453 C-41.54272317 412.89786928 -41.5445614 414.37689222 -41.55012288 415.85589731 C-41.5571858 417.86742671 -41.55069429 419.87898997 -41.5435667 421.89051914 C-41.54378407 423.0074967 -41.54400144 424.12447425 -41.54422539 425.27529961 C-41.2613773 428.93930764 -40.5550022 432.05634252 -39.29467773 435.50793457 C-33.16788577 438.62061146 -25.81650367 437.77833993 -19.0949707 437.74743652 C-17.06964297 437.75052815 -15.04431524 437.75362602 -13.01898789 437.75695932 C-10.85289022 437.75877823 -8.68684225 437.75585329 -6.52074814 437.7517643 C-1.99888985 437.7441306 2.52281122 437.75483562 7.04464722 437.76896667 C19.89883076 437.80664223 32.75294139 437.82487917 45.60717773 437.81335449 C52.71525459 437.80713882 59.82307619 437.81870984 66.93109024 437.84979981 C71.42500215 437.86844872 75.91819064 437.86514286 80.41209054 437.8456322 C83.86299847 437.83713436 87.31354122 437.86118202 90.7644043 437.88024902 C92.62849442 437.86259743 92.62849442 437.86259743 94.53024292 437.84458923 C102.90596365 437.93558629 102.90596365 437.93558629 106.95162964 440.83232117 C109.17723974 444.2279403 109.70532227 446.44790903 109.70532227 450.50793457 C108.19015599 454.5231252 107.29979697 456.1116181 103.70532227 458.50793457 C101.11521053 458.76799679 101.11521053 458.76799679 97.9450531 458.78208923 C96.74374252 458.79206436 95.54243195 458.80203949 94.30471802 458.81231689 C92.97137464 458.81321273 91.6380311 458.81387628 90.3046875 458.81433105 C88.90176451 458.82195205 87.4988457 458.83037944 86.09593201 458.83955383 C82.28150225 458.86152168 78.46715268 458.87030167 74.65266681 458.87538028 C72.26705713 458.87902352 69.88146845 458.88526365 67.49586678 458.89238167 C59.16552941 458.91689163 50.83525438 458.92992977 42.50488281 458.93347168 C34.75397816 458.93710017 27.00347115 458.96694192 19.25268787 459.00887626 C12.59009213 459.04365219 5.92762757 459.05902144 -0.73505825 459.05971771 C-4.71049166 459.06050856 -8.68552082 459.06915638 -12.66086006 459.09771538 C-16.40635941 459.12401921 -20.15112313 459.1260337 -23.8966732 459.11005974 C-25.91295394 459.1073992 -27.92922113 459.1293488 -29.94537354 459.1522522 C-37.93955063 459.0883299 -43.52331577 457.79824253 -50.29467773 453.50793457 C-51.20217773 452.95105957 -52.10967773 452.39418457 -53.04467773 451.82043457 C-59.07216209 445.62552009 -62.41580218 438.69281361 -62.42889881 430.09994698 C-62.43125104 429.44360283 -62.43360327 428.78725869 -62.43602678 428.11102533 C-62.44272092 425.89623555 -62.44225843 423.68150438 -62.44184875 421.46670532 C-62.44514715 419.86883291 -62.44887267 418.27096133 -62.45299023 416.67309082 C-62.46302163 412.26975337 -62.46672888 407.86642956 -62.46937954 403.46308231 C-62.47327937 398.7184599 -62.48285812 393.97384831 -62.49159241 389.22923279 C-62.51136876 377.76276419 -62.52142576 366.29629469 -62.5303202 354.8298133 C-62.53470229 349.43010927 -62.54006941 344.03040623 -62.54530907 338.63070297 C-62.5623246 320.67953508 -62.57681776 302.72836779 -62.58405781 284.77719307 C-62.58596772 280.11712773 -62.58788804 275.45706239 -62.58984375 270.79699707 C-62.59032749 269.63875446 -62.59081123 268.48051186 -62.59130963 267.28717099 C-62.59960603 248.53348697 -62.62493493 229.77986682 -62.65742443 211.02621068 C-62.69050938 191.77177035 -62.70850798 172.51736246 -62.71170205 153.26289356 C-62.71386611 142.45253662 -62.72259928 131.64227274 -62.74816322 120.83194351 C-62.76989004 111.62288607 -62.77791097 102.41394427 -62.76819644 93.2048641 C-62.76365714 88.50857437 -62.76551637 83.81252315 -62.78495789 79.11626625 C-62.8026293 74.81025263 -62.80155974 70.50465082 -62.78606059 66.19863258 C-62.78369051 64.64735218 -62.78797676 63.09604297 -62.79988924 61.5448065 C-62.92579842 44.05444281 -58.28103538 29.5534139 -46.10717773 16.69543457 C-32.8000565 4.09633207 -18.01557499 -0.12200915 0 0 Z M307.70532227 35.50793457 C298.66473323 49.25638221 299.42581523 64.11836381 299.51000977 79.92590332 C299.51374572 81.99526329 299.51658994 84.06462505 299.51858521 86.13398743 C299.52617582 91.5475463 299.54578448 96.96099572 299.56799316 102.37451172 C299.58855067 107.91180949 299.597608 113.44912516 299.60766602 118.9864502 C299.62903515 129.82699274 299.66311515 140.66745451 299.70532227 151.50793457 C308.18972687 151.57760188 316.67401092 151.63083037 325.15863132 151.66337109 C329.09885868 151.67899304 333.03888959 151.7001673 336.97900391 151.73425293 C340.78507848 151.76697103 344.5909647 151.78481366 348.39716911 151.7925663 C349.84556987 151.79808757 351.29396091 151.80886917 352.74228096 151.82512474 C363.24859439 152.27754403 363.24859439 152.27754403 372.70532227 148.50793457 C375.43042528 143.37398198 376.13819719 139.08140448 376.07763672 133.26867676 C376.08128738 132.47577744 376.08493805 131.68287811 376.08869934 130.86595154 C376.09676053 128.26201502 376.08322698 125.65870981 376.06860352 123.05480957 C376.06808417 121.23028565 376.06860475 119.40576116 376.07011414 117.58123779 C376.0700246 113.76163347 376.05963638 109.942241 376.04150391 106.12268066 C376.01888214 101.25311719 376.01826307 96.38386464 376.02502155 91.51426315 C376.02838225 87.74618827 376.02169105 83.97818281 376.01189232 80.21012115 C376.0080713 78.41617446 376.00687909 76.62222001 376.00847816 74.82826996 C376.01080669 59.19843562 375.68395959 43.95824349 364.58032227 31.63293457 C355.88375252 23.67732817 345.34447046 20.9216608 333.92016602 21.17590332 C323.22975129 21.76085508 314.51890609 27.49409309 307.70532227 35.50793457 Z " fill="#000000" transform="translate(63.294677734375,0.4920654296875)"/>
<path d="M0 0 C1.67743034 -0.01913956 1.67743034 -0.01913956 3.38874817 -0.03866577 C4.59294907 -0.04089142 5.79714996 -0.04311707 7.0378418 -0.04541016 C8.28075485 -0.05206696 9.52366791 -0.05872375 10.804245 -0.06558228 C13.43442301 -0.07570893 16.06462673 -0.08039929 18.69482422 -0.08007812 C21.38455077 -0.07991553 24.07359664 -0.09380406 26.76318359 -0.12109375 C30.64661432 -0.15778158 34.52925493 -0.16755325 38.4128418 -0.17041016 C40.2100341 -0.19196671 40.2100341 -0.19196671 42.04353333 -0.21395874 C49.69101609 -0.1722321 54.31828714 0.61649325 60.1315918 5.81787109 C63.93005096 10.66325539 65.66428638 14.5304782 65.71508789 20.68823242 C65.7278476 21.74315384 65.7406073 22.79807526 65.75375366 23.88496399 C65.75597931 25.01524521 65.75820496 26.14552643 65.76049805 27.31005859 C65.77048325 29.06886604 65.77048325 29.06886604 65.78067017 30.86320496 C65.79078662 33.34197422 65.7954875 35.82077066 65.79516602 38.29956055 C65.79953268 42.07891088 65.83584747 45.85708714 65.8737793 49.63623047 C65.87964902 52.04833586 65.88361737 54.46044679 65.88549805 56.87255859 C65.89986908 57.99676712 65.91424011 59.12097565 65.92904663 60.2792511 C65.88467517 67.95453372 64.84066107 73.41894675 59.6081543 79.34912109 C59.03194336 79.80416016 58.45573242 80.25919922 57.86206055 80.72802734 C57.28327148 81.20111328 56.70448242 81.67419922 56.1081543 82.16162109 C52.80774762 84.3746548 49.8310725 84.4329349 45.97851562 84.48339844 C44.30581352 84.50749283 44.30581352 84.50749283 42.59931946 84.53207397 C37.49445506 84.57661253 32.38967863 84.61803356 27.28466797 84.640625 C24.59486665 84.65393522 21.90582924 84.68173481 19.21630859 84.72265625 C15.33367142 84.77752608 11.45206492 84.79931715 7.5690918 84.81396484 C6.37298782 84.83663422 5.17688385 84.85930359 3.9445343 84.88265991 C-3.21944275 84.86460555 -8.06884434 84.04916581 -13.57543945 79.29052734 C-20.02019813 72.67616975 -19.89334894 65.37983264 -19.91137695 56.64599609 C-19.91803375 55.52163651 -19.92469055 54.39727692 -19.93154907 53.23884583 C-19.94165504 50.86440665 -19.94636673 48.48993918 -19.94604492 46.11547852 C-19.95041192 42.50082079 -19.98673845 38.88739067 -20.0246582 35.27294922 C-20.03052814 32.95980233 -20.03449635 30.64664967 -20.03637695 28.33349609 C-20.0579335 26.72525215 -20.0579335 26.72525215 -20.07992554 25.08451843 C-20.03670299 17.91243988 -19.14581902 11.20157934 -14.12802124 5.70500183 C-9.57512116 1.74037671 -5.99151284 0.04648558 0 0 Z M1.42456055 20.29052734 C1.42456055 34.81052734 1.42456055 49.33052734 1.42456055 64.29052734 C15.61456055 64.29052734 29.80456055 64.29052734 44.42456055 64.29052734 C44.42456055 49.77052734 44.42456055 35.25052734 44.42456055 20.29052734 C30.23456055 20.29052734 16.04456055 20.29052734 1.42456055 20.29052734 Z " fill="#000000" transform="translate(73.575439453125,294.70947265625)"/>
<path d="M0 0 C1.67743034 -0.01913956 1.67743034 -0.01913956 3.38874817 -0.03866577 C4.59294907 -0.04089142 5.79714996 -0.04311707 7.0378418 -0.04541016 C8.28075485 -0.05206696 9.52366791 -0.05872375 10.804245 -0.06558228 C13.43442301 -0.07570893 16.06462673 -0.08039929 18.69482422 -0.08007812 C21.38455077 -0.07991553 24.07359664 -0.09380406 26.76318359 -0.12109375 C30.64661432 -0.15778158 34.52925493 -0.16755325 38.4128418 -0.17041016 C40.2100341 -0.19196671 40.2100341 -0.19196671 42.04353333 -0.21395874 C49.69101609 -0.1722321 54.31828714 0.61649325 60.1315918 5.81787109 C63.93005096 10.66325539 65.66428638 14.5304782 65.71508789 20.68823242 C65.7278476 21.74315384 65.7406073 22.79807526 65.75375366 23.88496399 C65.75597931 25.01524521 65.75820496 26.14552643 65.76049805 27.31005859 C65.77048325 29.06886604 65.77048325 29.06886604 65.78067017 30.86320496 C65.79078662 33.34197422 65.7954875 35.82077066 65.79516602 38.29956055 C65.79953268 42.07891088 65.83584747 45.85708714 65.8737793 49.63623047 C65.87964902 52.04833586 65.88361737 54.46044679 65.88549805 56.87255859 C65.89986908 57.99676712 65.91424011 59.12097565 65.92904663 60.2792511 C65.88467517 67.95453372 64.84066107 73.41894675 59.6081543 79.34912109 C59.03194336 79.80416016 58.45573242 80.25919922 57.86206055 80.72802734 C57.28327148 81.20111328 56.70448242 81.67419922 56.1081543 82.16162109 C52.80774762 84.3746548 49.8310725 84.4329349 45.97851562 84.48339844 C44.30581352 84.50749283 44.30581352 84.50749283 42.59931946 84.53207397 C37.49445506 84.57661253 32.38967863 84.61803356 27.28466797 84.640625 C24.59486665 84.65393522 21.90582924 84.68173481 19.21630859 84.72265625 C15.33367142 84.77752608 11.45206492 84.79931715 7.5690918 84.81396484 C6.37298782 84.83663422 5.17688385 84.85930359 3.9445343 84.88265991 C-3.21944275 84.86460555 -8.06884434 84.04916581 -13.57543945 79.29052734 C-20.02019813 72.67616975 -19.89334894 65.37983264 -19.91137695 56.64599609 C-19.91803375 55.52163651 -19.92469055 54.39727692 -19.93154907 53.23884583 C-19.94165504 50.86440665 -19.94636673 48.48993918 -19.94604492 46.11547852 C-19.95041192 42.50082079 -19.98673845 38.88739067 -20.0246582 35.27294922 C-20.03052814 32.95980233 -20.03449635 30.64664967 -20.03637695 28.33349609 C-20.0579335 26.72525215 -20.0579335 26.72525215 -20.07992554 25.08451843 C-20.03670299 17.91243988 -19.14581902 11.20157934 -14.12802124 5.70500183 C-9.57512116 1.74037671 -5.99151284 0.04648558 0 0 Z M1.42456055 20.29052734 C1.42456055 34.81052734 1.42456055 49.33052734 1.42456055 64.29052734 C15.61456055 64.29052734 29.80456055 64.29052734 44.42456055 64.29052734 C44.42456055 49.77052734 44.42456055 35.25052734 44.42456055 20.29052734 C30.23456055 20.29052734 16.04456055 20.29052734 1.42456055 20.29052734 Z " fill="#000000" transform="translate(73.575439453125,174.70947265625)"/>
<path d="M0 0 C1.67743034 -0.01913956 1.67743034 -0.01913956 3.38874817 -0.03866577 C4.59294907 -0.04089142 5.79714996 -0.04311707 7.0378418 -0.04541016 C8.28075485 -0.05206696 9.52366791 -0.05872375 10.804245 -0.06558228 C13.43442301 -0.07570893 16.06462673 -0.08039929 18.69482422 -0.08007812 C21.38455077 -0.07991553 24.07359664 -0.09380406 26.76318359 -0.12109375 C30.64661432 -0.15778158 34.52925493 -0.16755325 38.4128418 -0.17041016 C40.2100341 -0.19196671 40.2100341 -0.19196671 42.04353333 -0.21395874 C49.69101609 -0.1722321 54.31828714 0.61649325 60.1315918 5.81787109 C63.93005096 10.66325539 65.66428638 14.5304782 65.71508789 20.68823242 C65.7278476 21.74315384 65.7406073 22.79807526 65.75375366 23.88496399 C65.75597931 25.01524521 65.75820496 26.14552643 65.76049805 27.31005859 C65.77048325 29.06886604 65.77048325 29.06886604 65.78067017 30.86320496 C65.79078662 33.34197422 65.7954875 35.82077066 65.79516602 38.29956055 C65.79953268 42.07891088 65.83584747 45.85708714 65.8737793 49.63623047 C65.87964902 52.04833586 65.88361737 54.46044679 65.88549805 56.87255859 C65.89986908 57.99676712 65.91424011 59.12097565 65.92904663 60.2792511 C65.88467517 67.95453372 64.84066107 73.41894675 59.6081543 79.34912109 C59.03194336 79.80416016 58.45573242 80.25919922 57.86206055 80.72802734 C57.28327148 81.20111328 56.70448242 81.67419922 56.1081543 82.16162109 C52.80774762 84.3746548 49.8310725 84.4329349 45.97851562 84.48339844 C44.30581352 84.50749283 44.30581352 84.50749283 42.59931946 84.53207397 C37.49445506 84.57661253 32.38967863 84.61803356 27.28466797 84.640625 C24.59486665 84.65393522 21.90582924 84.68173481 19.21630859 84.72265625 C15.33367142 84.77752608 11.45206492 84.79931715 7.5690918 84.81396484 C6.37298782 84.83663422 5.17688385 84.85930359 3.9445343 84.88265991 C-3.21944275 84.86460555 -8.06884434 84.04916581 -13.57543945 79.29052734 C-20.02019813 72.67616975 -19.89334894 65.37983264 -19.91137695 56.64599609 C-19.91803375 55.52163651 -19.92469055 54.39727692 -19.93154907 53.23884583 C-19.94165504 50.86440665 -19.94636673 48.48993918 -19.94604492 46.11547852 C-19.95041192 42.50082079 -19.98673845 38.88739067 -20.0246582 35.27294922 C-20.03052814 32.95980233 -20.03449635 30.64664967 -20.03637695 28.33349609 C-20.0579335 26.72525215 -20.0579335 26.72525215 -20.07992554 25.08451843 C-20.03670299 17.91243988 -19.14581902 11.20157934 -14.12802124 5.70500183 C-9.57512116 1.74037671 -5.99151284 0.04648558 0 0 Z M1.42456055 20.29052734 C1.42456055 34.81052734 1.42456055 49.33052734 1.42456055 64.29052734 C15.61456055 64.29052734 29.80456055 64.29052734 44.42456055 64.29052734 C44.42456055 49.77052734 44.42456055 35.25052734 44.42456055 20.29052734 C30.23456055 20.29052734 16.04456055 20.29052734 1.42456055 20.29052734 Z " fill="#000000" transform="translate(73.575439453125,54.70947265625)"/>
<path d="M0 0 C1.56037994 -0.01496269 1.56037994 -0.01496269 3.15228271 -0.03022766 C4.29313324 -0.03089233 5.43398376 -0.03155701 6.60940552 -0.03224182 C7.81125488 -0.04056534 9.01310425 -0.04888885 10.25137329 -0.0574646 C13.54901807 -0.07745319 16.84641018 -0.08820912 20.14409399 -0.09329104 C22.20469736 -0.09693404 24.26527641 -0.1031738 26.32587051 -0.11029243 C33.51577065 -0.13478893 40.70559861 -0.14783922 47.89553833 -0.15138245 C54.59569995 -0.15501778 61.2954035 -0.18491184 67.99542511 -0.22678703 C73.74924758 -0.26148669 79.50291823 -0.27693082 85.25684464 -0.27762848 C88.69279255 -0.27842144 92.12827389 -0.28716732 95.56411362 -0.31562614 C99.39709943 -0.34666444 103.22942742 -0.33774867 107.06253052 -0.32521057 C108.19933258 -0.34004486 109.33613464 -0.35487915 110.50738525 -0.37016296 C118.18092373 -0.29852879 118.18092373 -0.29852879 122.14678955 2.59677124 C124.45114179 5.9893403 124.96536255 8.17562141 124.96536255 12.27415466 C123.45019627 16.2893453 122.55983725 17.87783819 118.96536255 20.27415466 C116.67363167 20.53421688 116.67363167 20.53421688 113.9307251 20.54830933 C112.8904718 20.55828445 111.85021851 20.56825958 110.77844238 20.57853699 C109.0671666 20.579534 109.0671666 20.579534 107.32131958 20.58055115 C106.11947021 20.58887466 104.91762085 20.59719818 103.67935181 20.60577393 C100.38170703 20.62576252 97.08431492 20.63651844 93.78663111 20.64160037 C91.72602774 20.64524337 89.66544869 20.65148312 87.60485458 20.65860176 C80.41495445 20.68309825 73.22512649 20.69614854 66.03518677 20.69969177 C59.33502515 20.7033271 52.6353216 20.73322117 45.93529999 20.77509636 C40.18147752 20.80979602 34.42780686 20.82524015 28.67388046 20.82593781 C25.23793255 20.82673077 21.8024512 20.83547664 18.36661148 20.86393547 C14.53362567 20.89497376 10.70129767 20.886058 6.86819458 20.8735199 C5.73139252 20.88835419 4.59459045 20.90318848 3.42333984 20.91847229 C-4.25019863 20.84683812 -4.25019863 20.84683812 -8.21606445 17.95153809 C-10.5204167 14.55896902 -11.03463745 12.37268792 -11.03463745 8.27415466 C-8.77546568 2.28734946 -6.40821407 0.03292398 0 0 Z " fill="#000000" transform="translate(183.03463745117188,238.72584533691406)"/>
<path d="M0 0 C0.75318512 -0.00832352 1.50637024 -0.01664703 2.28237915 -0.02522278 C4.77440548 -0.04933507 7.26617013 -0.0580963 9.75830078 -0.06469727 C11.49081501 -0.07366271 13.22332844 -0.08278454 14.95584106 -0.09205627 C18.58906944 -0.10855218 22.2222056 -0.11624746 25.85546875 -0.11914062 C30.50854401 -0.12452495 35.16075133 -0.16220385 39.81358147 -0.20788479 C43.39270178 -0.23764422 46.97161282 -0.24486393 50.5508461 -0.24586678 C52.26606344 -0.25007137 53.98128127 -0.26251534 55.6963768 -0.28338432 C58.09771064 -0.310277 60.49702939 -0.30548124 62.8984375 -0.29296875 C63.95843964 -0.31522018 63.95843964 -0.31522018 65.03985596 -0.33792114 C68.85817178 -0.28133599 70.47214534 0.22163787 73.49612427 2.62901306 C76.11991958 6.00233509 76.57861328 8.04735342 76.57861328 12.30639648 C75.063447 16.32158712 74.17308798 17.91008002 70.57861328 20.30639648 C68.06842918 20.5105407 65.66824665 20.60012612 63.15722656 20.59692383 C62.02744888 20.60699966 62.02744888 20.60699966 60.87484741 20.61727905 C58.38280658 20.63629017 55.89103464 20.64018485 53.39892578 20.64233398 C51.66641122 20.64876001 49.93389776 20.65548822 48.2013855 20.6625061 C44.56815068 20.67448683 40.935011 20.67818614 37.30175781 20.67700195 C32.6488017 20.67679878 27.99645646 20.70409575 23.3436451 20.73854637 C19.76452845 20.76079785 16.18555919 20.76484003 12.60638046 20.7637825 C10.89118215 20.7661413 9.17597996 20.77498057 7.46084976 20.79044724 C5.05972953 20.81007141 2.65993115 20.80428406 0.25878906 20.79223633 C-0.44787903 20.80347534 -1.15454712 20.81471436 -1.88262939 20.82629395 C-6.65034658 20.76558701 -9.08598933 19.6987151 -12.42138672 16.30639648 C-13.96063148 12.16967618 -13.88759047 8.40197529 -12.17138672 4.36889648 C-8.51660616 0.06147654 -5.27433847 0.00493264 0 0 Z " fill="#000000" transform="translate(231.42138671875,118.693603515625)"/>
<path d="M0 0 C3.125 1.875 3.125 1.875 5 5 C5.98876625 10.02622846 5.7769173 13.70513784 3.125 18.125 C-1.29486216 20.7769173 -4.97377154 20.98876625 -10 20 C-13.125 18.125 -13.125 18.125 -15 15 C-15.98876625 9.97377154 -15.7769173 6.29486216 -13.125 1.875 C-8.70513784 -0.7769173 -5.02622846 -0.98876625 0 0 Z " fill="#000000" transform="translate(211,439)"/>
<path d="M0 0 C2.87029869 1.79393668 4.49131638 2.98263276 6 6 C6.5811138 13.08958838 6.5811138 13.08958838 4.125 16.9375 C0.64240255 20.31766811 -2.03637499 20.40798732 -6.73828125 20.33984375 C-9 20 -9 20 -12 17.9375 C-14.40813237 14.40055558 -15 12.27436594 -15 8 C-12.09343948 0.29761462 -7.71725419 -1.13727956 0 0 Z " fill="#000000" transform="translate(187,119)"/>
</svg>
